<svg width="48" height="48" viewBox="0 0 48 48" fill="none" xmlns="http://www.w3.org/2000/svg">
    <rect width="48" height="48" rx="12" fill="#911016" />
    <path
        d="M20.755 30.5V19.67H20.565L13.44 30.5H9.83V17.2H12.585V28.03H12.775L19.9 17.2H23.51V30.5H20.755ZM31.4967 18.245C30.5847 18.245 29.7297 18.378 28.9317 18.644C28.1463 18.8973 27.3927 19.3343 26.6707 19.955L25.8157 18.815C26.5377 18.1943 27.399 17.7067 28.3997 17.352C29.4003 16.9973 30.496 16.82 31.6867 16.82C32.662 16.82 33.517 16.9087 34.2517 17.086C34.9863 17.2633 35.6007 17.5103 36.0947 17.827C36.5887 18.1437 36.956 18.5173 37.1967 18.948C37.45 19.3787 37.5767 19.841 37.5767 20.335C37.5767 21.1457 37.3803 21.817 36.9877 22.349C36.595 22.8683 35.968 23.2737 35.1067 23.565C36.0567 23.8057 36.7977 24.211 37.3297 24.781C37.8743 25.3383 38.1467 26.073 38.1467 26.985C38.1467 27.5297 38.0137 28.0427 37.7477 28.524C37.4943 28.9927 37.089 29.4043 36.5317 29.759C35.987 30.101 35.284 30.3733 34.4227 30.576C33.5613 30.7787 32.5227 30.88 31.3067 30.88C30.0653 30.88 28.919 30.6837 27.8677 30.291C26.829 29.8983 25.9487 29.3663 25.2267 28.695L26.1767 27.555C26.8987 28.2263 27.665 28.714 28.4757 29.018C29.2863 29.3093 30.1667 29.455 31.1167 29.455C31.8513 29.455 32.4783 29.3917 32.9977 29.265C33.517 29.1257 33.935 28.9357 34.2517 28.695C34.581 28.4543 34.8217 28.1757 34.9737 27.859C35.1257 27.5297 35.2017 27.175 35.2017 26.795C35.2017 26.035 34.961 25.4523 34.4797 25.047C33.9983 24.629 33.2573 24.42 32.2567 24.42H28.2667V22.995H31.8767C33.7133 22.995 34.6317 22.1717 34.6317 20.525C34.6317 19.8537 34.3593 19.309 33.8147 18.891C33.27 18.4603 32.4973 18.245 31.4967 18.245Z"
        fill="white" />
</svg>
