<svg width="14" height="8" viewBox="0 0 14 8" fill="none" xmlns="http://www.w3.org/2000/svg">
    <path
        d="M6.66756 7.99998C6.4922 8.00099 6.31837 7.96738 6.15603 7.90107C5.99369 7.83477 5.84604 7.73707 5.72154 7.61358L0.391854 2.28389C0.267621 2.15966 0.169074 2.01217 0.10184 1.84985C0.0346055 1.68754 2.61801e-09 1.51356 0 1.33787C-2.61801e-09 1.16218 0.0346055 0.988208 0.10184 0.82589C0.169074 0.663572 0.267621 0.516086 0.391854 0.391853C0.516087 0.26762 0.663573 0.169073 0.825891 0.101839C0.98821 0.0346042 1.16218 -2.61801e-09 1.33787 0C1.51357 2.61802e-09 1.68754 0.0346042 1.84986 0.101839C2.01217 0.169073 2.15966 0.26762 2.28389 0.391853L6.66756 4.80217L11.0645 0.565068C11.1871 0.428775 11.3365 0.319239 11.5033 0.243309C11.6702 0.16738 11.8509 0.126691 12.0342 0.123787C12.2174 0.120884 12.3993 0.155827 12.5685 0.226433C12.7377 0.297039 12.8904 0.40179 13.0173 0.534132C13.1441 0.666474 13.2422 0.823561 13.3056 0.995569C13.3689 1.16758 13.3961 1.35081 13.3854 1.53379C13.3747 1.71678 13.3264 1.8956 13.2434 2.05905C13.1605 2.22251 13.0447 2.36709 12.9033 2.48375L7.5736 7.6269C7.32994 7.86183 7.006 7.99521 6.66756 7.99998Z"
        fill="#364670" />
</svg>
    