<svg width="36" height="36" viewBox="0 0 36 36" fill="none" xmlns="http://www.w3.org/2000/svg">
    <circle cx="18" cy="18" r="18" fill="#A68144" />
    <path
        d="M18 8C15.2386 8 13 10.2386 13 13C13 15.7614 15.2386 18 18 18C20.7614 18 23 15.7614 23 13C23 10.2386 20.7614 8 18 8ZM14.4688 19.3125C11.8545 20.027 10 22.3002 10 25V27C10 27.5523 10.4477 28 11 28H25C25.5523 28 26 27.5523 26 27V25C26 22.3002 24.1455 20.027 21.5312 19.3125C21.3071 19.2512 21.0869 19.2795 20.875 19.375C19.9595 19.7876 18.9849 20 18 20C17.0151 20 16.0405 19.7876 15.125 19.375C14.9131 19.2795 14.6929 19.2512 14.4688 19.3125Z"
        fill="white" />
</svg>
    